<svg width="108" height="107" viewBox="0 0 108 107" fill="none" xmlns="http://www.w3.org/2000/svg">
<mask id="mask0" mask-type="alpha" maskUnits="userSpaceOnUse" x="0" y="0" width="108" height="107">
<path d="M103.358 75.3968H31.93L35.5164 67.3681L95.106 67.2493C97.1213 67.2493 98.8488 65.6676 99.2084 63.479L107.461 12.709C107.677 11.3774 107.353 10.0064 106.561 8.96482C106.17 8.45225 105.682 8.03937 105.131 7.75479C104.58 7.47026 103.979 7.32085 103.371 7.3169L27.5639 7.04004L26.9162 3.69141C26.5084 1.55566 24.7571 0 22.766 0H4.23415C3.11118 0 2.0342 0.490309 1.24015 1.36307C0.446094 2.23583 0 3.41954 0 4.65378C0 5.88806 0.446094 7.0718 1.24015 7.94455C2.0342 8.81729 3.11118 9.30761 4.23415 9.30761H19.3355L22.1663 24.0996L29.1352 61.1851L20.1631 77.2825C19.6972 77.9737 19.4166 78.7939 19.353 79.6515C19.2894 80.509 19.4454 81.3687 19.8033 82.1339C20.523 83.7025 21.9743 84.6913 23.5816 84.6913H31.1143C29.5085 87.036 28.6411 89.891 28.6434 92.8259C28.6434 100.288 34.161 106.352 40.95 106.352C47.7389 106.352 53.2567 100.288 53.2567 92.8259C53.2567 89.8856 52.3689 87.0252 50.7854 84.6913H70.1094C68.5033 87.036 67.6357 89.891 67.6382 92.8259C67.6382 100.288 73.156 106.352 79.9448 106.352C86.7337 106.352 92.2515 100.288 92.2515 92.8259C92.2515 89.8856 91.3637 87.0252 89.7808 84.6913H103.371C105.698 84.6913 107.605 82.6085 107.605 80.0376C107.598 78.8047 107.147 77.6248 106.352 76.7554C105.557 75.886 104.481 75.3979 103.358 75.3968ZM29.3271 16.2158L98.3928 16.4663L91.6276 58.1001L37.3756 58.2054L29.3271 16.2158ZM40.95 96.992C38.8629 96.992 37.1596 95.1198 37.1596 92.8259C37.1596 90.5319 38.8629 88.6598 40.95 88.6598C43.0371 88.6598 44.7403 90.5319 44.7403 92.8259C44.7403 93.9307 44.341 94.9902 43.6302 95.7715C42.9194 96.5529 41.9553 96.992 40.95 96.992ZM79.9448 96.992C77.8578 96.992 76.1544 95.1198 76.1544 92.8259C76.1544 90.5319 77.8578 88.6598 79.9448 88.6598C82.0319 88.6598 83.7353 90.5319 83.7353 92.8259C83.7353 93.9307 83.3358 94.9902 82.6249 95.7715C81.914 96.5529 80.9501 96.992 79.9448 96.992Z" fill="black"/>
</mask>
<g mask="url(#mask0)">
<rect x="-37" y="-47" width="190" height="178" fill="#FFFDFD"/>
</g>
</svg>
