<svg width="512" height="512" viewBox="0 0 512 512" fill="none" xmlns="http://www.w3.org/2000/svg">
<g clip-path="url(#clip0)">
<rect width="512" height="512" fill="white" style="mix-blend-mode:darken"/>
<path d="M148.004 379.317C125.635 378.175 126.056 346.712 148.003 345.62C210.171 345.836 374.144 345.678 438.289 345.723C455.833 345.723 470.843 333.783 474.789 316.69L511.213 158.965C513.299 149.935 511.194 140.588 505.439 133.323C499.683 126.058 491.068 121.833 481.8 121.833C455.995 121.833 236.954 120.841 124.761 120.394L106.977 54.4059C102.708 38.6365 88.3169 27.6237 71.9802 27.6237H15.008C6.71957 27.6237 0 34.3432 0 42.6316C0 50.92 6.71957 57.6396 15.008 57.6396H71.9802C74.7927 57.6396 77.2691 59.5356 78.0004 62.234L146.302 315.645C134.292 316.081 123.106 320.965 114.624 329.572C105.711 338.617 100.925 350.589 101.146 363.285C101.588 388.675 122.608 409.332 148.004 409.332H169.887C166.635 416.16 164.809 423.793 164.809 431.845C164.809 460.811 188.373 484.375 217.338 484.375C246.304 484.375 269.868 460.811 269.868 431.845C269.868 423.792 268.041 416.16 264.789 409.332H359.555C356.305 416.158 354.479 423.787 354.479 431.837C354.479 460.803 378.045 484.367 407.009 484.367C435.975 484.367 459.54 460.802 459.54 431.837C459.54 423.474 457.565 415.566 454.073 408.54C460.012 406.54 464.295 400.938 464.295 394.325C464.295 386.037 457.575 379.317 449.287 379.317H148.004ZM239.851 431.846C239.851 444.261 229.752 454.36 217.337 454.36C204.923 454.36 194.824 444.261 194.824 431.846C194.824 419.439 204.913 409.343 217.318 409.333H217.356C229.762 409.343 239.851 419.439 239.851 431.846ZM407.01 454.352C394.597 454.352 384.496 444.252 384.496 431.838C384.496 419.547 394.4 409.531 406.645 409.333H407.376C419.623 409.531 429.526 419.547 429.526 431.838C429.525 444.252 419.425 454.352 407.01 454.352V454.352ZM481.91 151.959C481.999 152.071 481.986 152.124 481.967 152.21L466.62 218.67H414.65L423.5 151.612L481.68 151.846C481.769 151.848 481.822 151.848 481.91 151.959V151.959ZM327.183 315.706V248.686H380.413L371.568 315.706H327.183ZM252.761 315.706L243.845 248.686H297.167V315.706H252.761ZM183.672 315.706H183.625C179.967 315.705 176.744 313.237 175.792 309.723L159.342 248.686H213.563L222.48 315.706H183.672ZM239.85 218.671L230.825 150.836L297.166 151.103V218.671H239.85ZM327.183 218.671V151.224L393.24 151.49L384.374 218.671H327.183ZM200.528 150.713L209.569 218.67H151.251L132.862 150.44L200.528 150.713ZM438.289 315.706H401.843L410.688 248.686H459.687L445.543 309.936C444.758 313.333 441.776 315.706 438.289 315.706Z" fill="#808080"/>
</g>
<defs>
<clipPath id="clip0">
<rect width="512" height="512" fill="white"/>
</clipPath>
</defs>
</svg>
